<?xml version="1.0" encoding="UTF-8"?>
<svg id="Layer_2" data-name="Layer 2" xmlns="http://www.w3.org/2000/svg" xmlns:xlink="http://www.w3.org/1999/xlink" viewBox="0 0 526.45 526.38">
  <defs>
    <style>
      .cls-1 {
        clip-path: url(#clippath);
      }

      .cls-2, .cls-3, .cls-4, .cls-5, .cls-6, .cls-7, .cls-8, .cls-9, .cls-10, .cls-11, .cls-12, .cls-13, .cls-14, .cls-15, .cls-16, .cls-17, .cls-18, .cls-19, .cls-20, .cls-21, .cls-22, .cls-23, .cls-24, .cls-25, .cls-26, .cls-27, .cls-28, .cls-29, .cls-30, .cls-31, .cls-32, .cls-33, .cls-34, .cls-35, .cls-36, .cls-37 {
        fill: none;
      }

      .cls-2, .cls-38 {
        stroke-width: 0px;
      }

      .cls-3 {
        stroke: url(#Sky_6);
      }

      .cls-3, .cls-4, .cls-5, .cls-6, .cls-7, .cls-8, .cls-9, .cls-10, .cls-11, .cls-12, .cls-13, .cls-14, .cls-15, .cls-16, .cls-17, .cls-18, .cls-19, .cls-20, .cls-21, .cls-22, .cls-23, .cls-24, .cls-25, .cls-26, .cls-27, .cls-28, .cls-29, .cls-30, .cls-31, .cls-32, .cls-33, .cls-34, .cls-35, .cls-36, .cls-37 {
        stroke-miterlimit: 10;
      }

      .cls-4 {
        stroke: url(#Sky_6-2);
      }

      .cls-5 {
        stroke: url(#Sky_6-6);
      }

      .cls-6 {
        stroke: url(#Sky_6-5);
      }

      .cls-7 {
        stroke: url(#Sky_6-8);
      }

      .cls-8 {
        stroke: url(#Sky_6-4);
      }

      .cls-9 {
        stroke: url(#Sky_6-3);
      }

      .cls-10 {
        stroke: url(#Sky_6-7);
      }

      .cls-11 {
        stroke: url(#Sky_6-9);
      }

      .cls-12 {
        stroke: #524fa1;
        stroke-width: 5px;
      }

      .cls-39 {
        clip-path: url(#clippath-1);
      }

      .cls-40 {
        filter: url(#drop-shadow-1);
      }

      .cls-38 {
        fill: #524fa1;
      }

      .cls-13 {
        stroke: url(#Sky_6-13);
      }

      .cls-14 {
        stroke: url(#Sky_6-11);
      }

      .cls-15 {
        stroke: url(#Sky_6-10);
      }

      .cls-16 {
        stroke: url(#Sky_6-14);
      }

      .cls-17 {
        stroke: url(#Sky_6-12);
      }

      .cls-18 {
        stroke: url(#Sky_6-16);
      }

      .cls-19 {
        stroke: url(#Sky_6-23);
      }

      .cls-20 {
        stroke: url(#Sky_6-24);
      }

      .cls-21 {
        stroke: url(#Sky_6-17);
      }

      .cls-22 {
        stroke: url(#Sky_6-22);
      }

      .cls-23 {
        stroke: url(#Sky_6-19);
      }

      .cls-24 {
        stroke: url(#Sky_6-15);
      }

      .cls-25 {
        stroke: url(#Sky_6-29);
      }

      .cls-26 {
        stroke: url(#Sky_6-26);
      }

      .cls-27 {
        stroke: url(#Sky_6-28);
      }

      .cls-28 {
        stroke: url(#Sky_6-27);
      }

      .cls-29 {
        stroke: url(#Sky_6-25);
      }

      .cls-30 {
        stroke: url(#Sky_6-20);
      }

      .cls-31 {
        stroke: url(#Sky_6-18);
      }

      .cls-32 {
        stroke: url(#Sky_6-21);
      }

      .cls-33 {
        stroke: url(#Sky_6-31);
      }

      .cls-34 {
        stroke: url(#Sky_6-33);
      }

      .cls-35 {
        stroke: url(#Sky_6-32);
      }

      .cls-36 {
        stroke: url(#Sky_6-30);
      }

      .cls-37 {
        stroke: url(#Sky_6-34);
      }
    </style>
    <clipPath id="clippath">
      <path class="cls-2" d="M439.38,264.13c0,96.65-78.35,175-175,175s-175-78.35-175-175c0-56.68,26.95-107.07,68.73-139.05,29.46-22.55,66.3-35.95,106.27-35.95,96.65,0,175,78.35,175,175Z"/>
    </clipPath>
    <clipPath id="clippath-1">
      <rect class="cls-2" x="64.32" y="64.25" width="400" height="400" rx="50" ry="50" transform="translate(264.27 -109.5) rotate(45)"/>
    </clipPath>
    <filter id="drop-shadow-1" filterUnits="userSpaceOnUse">
      <feOffset dx="7" dy="7"/>
      <feGaussianBlur result="blur" stdDeviation="5"/>
      <feFlood flood-color="#000" flood-opacity=".75"/>
      <feComposite in2="blur" operator="in"/>
      <feComposite in="SourceGraphic"/>
    </filter>
    <linearGradient id="Sky_6" data-name="Sky 6" x1="200.27" y1="215.7" x2="477.06" y2="215.7" gradientUnits="userSpaceOnUse">
      <stop offset="0" stop-color="#662d91"/>
      <stop offset=".08" stop-color="#6f3089"/>
      <stop offset=".2" stop-color="#883875"/>
      <stop offset=".36" stop-color="#b24554"/>
      <stop offset=".55" stop-color="#eb5826"/>
      <stop offset=".57" stop-color="#f15a22"/>
      <stop offset="1" stop-color="#b72467"/>
    </linearGradient>
    <linearGradient id="Sky_6-2" data-name="Sky 6" x1="195.13" y1="220.09" x2="472.68" y2="220.09" xlink:href="#Sky_6"/>
    <linearGradient id="Sky_6-3" data-name="Sky 6" x1="189.91" y1="224.44" x2="468.14" y2="224.44" xlink:href="#Sky_6"/>
    <linearGradient id="Sky_6-4" data-name="Sky 6" x1="184.65" y1="228.62" x2="463.47" y2="228.62" xlink:href="#Sky_6"/>
    <linearGradient id="Sky_6-5" data-name="Sky 6" x1="179.4" y1="232.54" x2="458.71" y2="232.54" xlink:href="#Sky_6"/>
    <linearGradient id="Sky_6-6" data-name="Sky 6" x1="174.18" y1="236.28" x2="454.06" y2="236.28" xlink:href="#Sky_6"/>
    <linearGradient id="Sky_6-7" data-name="Sky 6" x1="169.03" y1="239.74" x2="449.53" y2="239.74" xlink:href="#Sky_6"/>
    <linearGradient id="Sky_6-8" data-name="Sky 6" x1="163.95" y1="242.9" x2="444.94" y2="242.9" xlink:href="#Sky_6"/>
    <linearGradient id="Sky_6-9" data-name="Sky 6" x1="158.95" y1="245.74" x2="440.14" y2="245.74" xlink:href="#Sky_6"/>
    <linearGradient id="Sky_6-10" data-name="Sky 6" x1="154.03" y1="248.28" x2="435.05" y2="248.28" xlink:href="#Sky_6"/>
    <linearGradient id="Sky_6-11" data-name="Sky 6" x1="149.19" y1="250.55" x2="429.59" y2="250.55" xlink:href="#Sky_6"/>
    <linearGradient id="Sky_6-12" data-name="Sky 6" x1="144.39" y1="252.6" x2="423.77" y2="252.6" xlink:href="#Sky_6"/>
    <linearGradient id="Sky_6-13" data-name="Sky 6" x1="139.62" y1="254.53" x2="417.56" y2="254.53" xlink:href="#Sky_6"/>
    <linearGradient id="Sky_6-14" data-name="Sky 6" x1="134.83" y1="256.43" x2="411.1" y2="256.43" xlink:href="#Sky_6"/>
    <linearGradient id="Sky_6-15" data-name="Sky 6" x1="129.98" y1="258.43" x2="404.46" y2="258.43" xlink:href="#Sky_6"/>
    <linearGradient id="Sky_6-16" data-name="Sky 6" x1="124.99" y1="260.69" x2="397.77" y2="260.69" xlink:href="#Sky_6"/>
    <linearGradient id="Sky_6-17" data-name="Sky 6" x1="119.76" y1="263.18" x2="391.2" y2="263.18" xlink:href="#Sky_6"/>
    <linearGradient id="Sky_6-18" data-name="Sky 6" x1="114.41" y1="265.97" x2="384.98" y2="265.97" xlink:href="#Sky_6"/>
    <linearGradient id="Sky_6-19" data-name="Sky 6" x1="109.03" y1="269.23" x2="379.42" y2="269.23" xlink:href="#Sky_6"/>
    <linearGradient id="Sky_6-20" data-name="Sky 6" x1="103.7" y1="272.89" x2="374.65" y2="272.89" xlink:href="#Sky_6"/>
    <linearGradient id="Sky_6-21" data-name="Sky 6" x1="98.49" y1="276.61" x2="370.53" y2="276.61" xlink:href="#Sky_6"/>
    <linearGradient id="Sky_6-22" data-name="Sky 6" x1="93.44" y1="280.45" x2="366.96" y2="280.45" xlink:href="#Sky_6"/>
    <linearGradient id="Sky_6-23" data-name="Sky 6" x1="88.56" y1="284.49" x2="363.77" y2="284.49" xlink:href="#Sky_6"/>
    <linearGradient id="Sky_6-24" data-name="Sky 6" x1="83.88" y1="288.78" x2="360.8" y2="288.78" xlink:href="#Sky_6"/>
    <linearGradient id="Sky_6-25" data-name="Sky 6" x1="79.39" y1="293.35" x2="357.92" y2="293.35" xlink:href="#Sky_6"/>
    <linearGradient id="Sky_6-26" data-name="Sky 6" x1="75.07" y1="298.15" x2="355.01" y2="298.15" xlink:href="#Sky_6"/>
    <linearGradient id="Sky_6-27" data-name="Sky 6" x1="70.88" y1="303.15" x2="351.98" y2="303.15" xlink:href="#Sky_6"/>
    <linearGradient id="Sky_6-28" data-name="Sky 6" x1="66.78" y1="308.24" x2="348.74" y2="308.24" xlink:href="#Sky_6"/>
    <linearGradient id="Sky_6-29" data-name="Sky 6" x1="62.69" y1="313.3" x2="345.25" y2="313.3" xlink:href="#Sky_6"/>
    <linearGradient id="Sky_6-30" data-name="Sky 6" x1="58.52" y1="318.16" x2="341.45" y2="318.16" xlink:href="#Sky_6"/>
    <linearGradient id="Sky_6-31" data-name="Sky 6" x1="54.14" y1="322.33" x2="337.34" y2="322.33" xlink:href="#Sky_6"/>
    <linearGradient id="Sky_6-32" data-name="Sky 6" x1="49.39" y1="325.55" x2="332.91" y2="325.55" xlink:href="#Sky_6"/>
    <linearGradient id="Sky_6-33" data-name="Sky 6" x1="44.15" y1="328.67" x2="328.18" y2="328.67" xlink:href="#Sky_6"/>
    <linearGradient id="Sky_6-34" data-name="Sky 6" x1="38.43" y1="331.59" x2="323.2" y2="331.59" xlink:href="#Sky_6"/>
  </defs>
  <g id="Layer_1-2" data-name="Layer 1">
    <g>
      <path class="cls-38" d="M262.13,5c12.02,0,23.32,4.68,31.82,13.18l212.13,212.13c8.5,8.5,13.18,19.8,13.18,31.82s-4.68,23.32-13.18,31.82l-212.13,212.13c-8.5,8.5-19.8,13.18-31.82,13.18s-23.32-4.68-31.82-13.18L18.18,293.95c-17.55-17.55-17.55-46.09,0-63.64L230.31,18.18c8.5-8.5,19.8-13.18,31.82-13.18M262.13,0c-12.8,0-25.59,4.88-35.36,14.64L14.64,226.78c-19.53,19.53-19.53,51.18,0,70.71l212.13,212.13c9.76,9.76,22.56,14.64,35.36,14.64s25.59-4.88,35.36-14.64l212.13-212.13c19.53-19.53,19.53-51.18,0-70.71L297.49,14.64c-9.76-9.76-22.56-14.64-35.36-14.64h0Z"/>
      <g class="cls-1">
        <g class="cls-39">
          <g class="cls-40">
            <g>
              <path class="cls-3" d="M200.7,32.49c13.26,20.78,21.82,43.46,35.85,63.76,15.19,22-5.03,23.04-6.59,44.75-1.59,22.11,30.8,29.49,47.62,36.59,12.17,5.14,41.77,14.27,46.7,29.36,5.05,15.43-10.68,25.16,1.91,41.29,15.47,19.82,43.34,22.57,62.15,37.21,12.48,9.71,22.36,30.65,32.36,44.17,17.64,23.84,38.02,45.41,55.96,69.26"/>
              <path class="cls-4" d="M195.57,36.33c12.36,21.72,22.33,43.7,35.58,64.7,12.65,20.06-8.4,25.98-6.65,44.73,1.81,19.39,37.18,27.97,51.63,34.93,11.12,5.36,35.96,15.73,41.02,28.93,6,15.64-5.94,25.04,8.42,40.58,15.99,17.3,42.64,21.19,58.23,37.89,5.99,6.41,7.61,15.39,12.68,23.08,5.02,7.6,12.18,14.65,17.73,21.98,18.38,24.25,39.34,46.47,58.06,70.64"/>
              <path class="cls-9" d="M190.35,40.44c6.36,12.12,11.36,24.44,17.15,36.79,4.92,10.5,12.46,18.64,17.9,28.33,9.84,17.53-8.95,28.51-4.94,44.66,4.17,16.82,41.15,25.99,54.18,33.38,9.92,5.63,30.69,17.16,36.08,28.35,1.85,3.85.65,8.19,1.27,12.18,1.95,12.57,3.83,18.64,13.7,28.25,15.53,15.11,40.59,21.55,52.17,39.43,4.82,7.44,7.25,15.48,12.68,22.77,5.55,7.45,12.12,14.4,17.75,21.86,18.62,24.67,40.05,47.76,59.46,71.92"/>
              <path class="cls-8" d="M185.1,44.67c6.11,12.29,11.08,24.93,16.99,37.29,4.47,9.33,13.86,18.57,17.05,28.02,5.11,15.11-7.08,30.8-1.3,44.39,6.48,15.25,42.23,23,55.12,32.07,8.96,6.3,26.05,17.87,32.02,27.56,2.24,3.64,1.91,8.16,3.17,12.07,4.01,12.4,7.99,19.53,18.07,28.73,15.55,14.19,35.94,22.07,45.99,40.48,22.95,42.04,59.64,80.2,90.87,117.22"/>
              <path class="cls-6" d="M179.85,48.88c5.94,12.31,10.93,25.06,16.99,37.3,4.58,9.24,12.69,18.1,15.65,28.02,4.27,14.31-4.58,31.17,3.74,43.87,9.7,14.8,40.89,19.1,54.65,31.13,8.53,7.45,22.03,17.6,28.98,26.6,2.75,3.56,3.4,8.31,5.3,12.25,5.93,12.36,11.14,19.98,21.75,29.37,15.51,13.73,30.64,22.14,40.13,40.92,8.18,16.18,21.55,28.71,31.61,43.96,17.1,25.91,38.93,50.74,59.68,73.77"/>
              <path class="cls-5" d="M174.63,52.99c9.73,20.3,25.1,43.63,30.9,65.22,4.07,15.15-1.87,30.88,9.72,43.1,13.62,14.36,38.5,15.15,52.96,30.67,8.49,9.11,18.78,16.54,27,25.56,12.39,13.58,17.64,29.85,32.29,42.75,15.1,13.31,25.32,23.52,35.41,40.56,9.28,15.67,22.8,28.35,32.19,44.31,15.79,26.81,37.05,52.01,58.58,74.28"/>
              <path class="cls-10" d="M169.48,56.9c9.94,20.5,24.17,42.67,28.96,65.01,3.43,16,1.05,32.25,16.26,42.14,18.28,11.89,35.44,13.37,50.16,30.69,8.26,9.72,17.31,15.68,25.97,24.59,13.49,13.89,22.06,30.62,36.99,44.03,6.62,5.95,14.81,11.72,20.17,18.91,4.87,6.53,6.79,14.16,11.76,20.51,5.53,7.07,13.66,11.66,19.26,18.71,6.32,7.96,8.8,17.67,13.2,26.63,13.67,27.85,34.74,53.01,56.99,74.3"/>
              <path class="cls-7" d="M164.4,60.59c10.5,21.08,22.95,41.38,27.08,64.73,3.25,18.39,4.87,32.19,22.86,41.03,20.23,9.94,33.46,12.19,46.89,30.76,7.77,10.75,15.87,15.36,25.14,24.31,14.61,14.11,26.18,31.12,41.3,45.23,12.44,11.61,17.86,26.47,29.51,37.81,6.29,6.12,15.08,9.71,20.79,16.49,7.27,8.63,8.22,20.25,12.07,30.42,10.92,28.88,31.73,53.53,54.57,73.69"/>
              <path class="cls-11" d="M159.4,64.02c11.15,21.46,22.16,40.17,25.39,64.4,2.77,20.81,8.76,32.6,29.19,39.8,21.41,7.54,31.69,12.03,43.35,30.98,6.9,11.21,14.65,16.05,24.06,24.87,15.58,14.61,30.27,30.95,45.52,46.01,11.28,11.13,15.76,26.33,28.02,35.99,6.71,5.29,16.01,8.23,21.78,14.76,8.47,9.58,7.97,22.59,11.46,34.25,8.73,29.09,27.91,53.84,51.67,72.23"/>
              <path class="cls-15" d="M154.47,67.2c12.01,21.92,20.82,38.98,24.04,64.03,3.07,23.91,12.37,31.82,34.95,38.51,21.9,6.48,29.6,12.16,39.61,31.43,5.96,11.47,13.93,17.37,23.23,26.13,16.27,15.3,33.87,30.08,49.15,46.34,10.56,11.24,14.14,25.33,27.3,34.2,6.75,4.55,16.83,7.08,22.26,13.48,8.33,9.81,7.97,25.57,11.14,37.45,7.82,29.39,23.61,53.1,48.62,70.43"/>
              <path class="cls-14" d="M149.62,70.16c12.86,22.02,19.4,38.29,23.12,63.6,3.84,26.08,16.06,30.91,39.86,37.25,22.01,5.86,27.4,12.93,35.76,32.13,5.14,11.81,13.71,19.14,22.96,27.97,16.63,15.87,36.92,28.64,51.89,46.16,9.99,11.69,13.38,24.23,27.22,32.62,6.45,3.91,17.53,6.32,22.31,12.63,7.37,9.71,7.86,28.75,10.88,40.33,7.68,29.42,19.76,51.48,45.7,67.92"/>
              <path class="cls-17" d="M144.82,72.96c13.56,21.63,18.07,38.17,22.77,63.07,4.99,26.45,20.01,29.96,43.69,36.11,21.74,5.65,25,14.3,31.91,33.06,4.59,12.48,13.98,21.07,23.75,29.92,17.08,15.47,38.88,27.54,53.24,45.77,9.51,12.07,13.58,23.36,27.66,31.44,6.48,3.72,17.15,6.06,21.72,12.6,6.73,9.62,7.92,30.48,10.94,41.98,7.74,29.46,16.57,49.41,43.02,65.15"/>
              <path class="cls-13" d="M140.03,75.7c14.06,20.84,17.02,38.43,23.07,62.36,6.4,25.34,23.68,28.69,46.25,35.24,21.29,6.18,22.42,15.84,28.17,34.16,4.28,13.63,14.81,22.84,25.68,31.7,17.7,14.43,38.93,27.15,53.11,45.32,9.43,12.08,14.52,22.81,28.51,30.77,23.67,13.46,25.24,30.19,32.15,56,7.34,27.38,13.81,48.82,40.36,61.94"/>
              <path class="cls-16" d="M135.24,78.47c14.3,20.56,16.17,40.02,24.61,62.93,8.86,24.07,29.47,25.76,50.3,34.27,16.81,6.87,17.04,17.66,21.21,33.32,4.28,16.06,15.93,24.44,28.95,34.16,17.09,12.75,35.14,25.19,48.95,41.69,11.83,14.13,19.14,23.86,34.12,35,21.81,16.2,24.69,36.48,31.71,62.89,6.3,23.68,13.21,40.11,35.77,51.49"/>
              <path class="cls-24" d="M130.39,81.42c13.65,19.66,16.2,40.62,26.62,61.55,11.04,22.17,31.83,23.02,50.64,34.53,14.88,9.11,12.7,19.54,17.26,34.22,5.53,17.79,17.71,24.75,32.9,35.07,32.18,21.86,52.14,52.96,81.57,76.96,20.33,16.58,25.24,37.02,31.87,62.52,6.14,23.6,11.65,36.79,32.97,49.02"/>
              <path class="cls-18" d="M125.41,84.72c12.85,18.69,17.31,40.91,29.54,59.6,12.74,19.47,34.55,20.84,50.21,35.36,11.33,10.5,8.8,21.83,12.98,35.01,6.12,19.33,21.27,25.01,37.73,35.42,32.5,20.54,50.44,53.31,78.98,77.98,35.28,30.48,23.74,82.58,62.64,108.44"/>
              <path class="cls-21" d="M120.18,88.15c12.11,18.05,19.47,40.32,33.22,57.04,13.16,15.99,37.24,20.86,49.11,37.08,7.76,10.61,5.34,23.73,8.67,35.61,5.63,20.03,27.17,25.51,43.25,35.18,32.69,19.65,47.13,54.92,75.47,79.66,19.88,17.35,26.84,32.57,33.5,58.4,5.31,20.58,9.79,34.54,27.5,46.95"/>
              <path class="cls-31" d="M114.83,91.68c11.95,18.67,22.86,40.11,38.98,55.63,12.92,12.44,35.61,20.21,44.27,36.05,6.33,11.58,1.69,24.71,5.58,36.92,6.63,20.86,33.04,25.65,49.9,35.22,32.56,18.48,40.78,56.76,69.07,80.3,20.65,17.18,28.84,26.46,36.35,54.07,5.2,19.1,8.8,37.97,25.71,50.26"/>
              <path class="cls-23" d="M109.45,95.48c12.54,19.54,26.06,37.89,44.06,52.78,13.19,10.9,36.44,20.8,41.79,38.01,3.83,12.33-3.26,25.09,1.39,37.46,7.68,20.42,39.31,24.49,56.14,34.01,32.16,18.2,35.61,59.68,64.65,82.15,7.54,5.83,15.39,7.92,21.95,15.07,9.25,10.09,12.08,22.46,15.71,35.47,5.31,19.02,8.64,38.6,23.94,52.46"/>
              <path class="cls-30" d="M104.12,99.68c13.56,20.7,29.52,35.12,49.31,49.78,13.83,10.24,36.47,21.12,38.65,39.91,1.5,12.94-7.52,24.95-1.96,37.82,8.49,19.64,45.34,22.76,62.04,32.51,31.05,18.12,30.35,62.49,60.55,83.44,7.85,5.45,15.99,6.38,22.98,13.25,9.31,9.14,12.48,21.32,15.85,33.69,5.74,21.11,9.15,38.32,22.7,56"/>
              <path class="cls-32" d="M98.9,104.37c14.78,21.71,33.22,32.05,54.47,46.62,14.78,10.14,35.88,21.33,34.98,41.53-.6,13.28-10.71,24.82-3.84,38.12,9.84,19.04,49.79,20.11,66.86,30.82,29.5,18.5,24.92,64.73,56.91,84.12,8.21,4.97,16.55,4.87,23.8,11.63,9.16,8.54,12.74,20.11,15.8,32.15,5.72,22.5,8.19,40.23,22.26,59.46"/>
              <path class="cls-22" d="M93.84,109.6c15.91,22.17,37.07,28.84,59.31,43.31,15.95,10.38,34.73,21.57,30.94,42.83-2.31,12.95-13.26,25.57-4.1,38.4,13.53,18.96,51.55,15.78,70.22,29.04,14.51,10.31,15.4,28.27,21.95,43.55,6.77,15.8,16.34,31.87,31.85,40.23,8.44,4.55,17.05,4.3,24.43,10.78,9.19,8.08,12.63,19.35,15.35,31.19,5.49,23.9,7.58,42.1,22.77,62.35"/>
              <path class="cls-19" d="M88.96,115.37c16.98,22.09,40.72,25.51,63.59,39.86,17.29,10.85,32.9,21.91,26.76,43.82-3.69,13.17-14.12,26.06-2.55,38.41,17.18,18.33,52.39,10.85,71.64,27.52,12.32,10.67,12.27,29.39,18.16,43.59,6.81,16.39,16.87,31.88,33.51,39.42,23.34,10.59,33.36,12.39,39.23,40.95,5.16,25.13,7.66,43.78,24.07,64.66"/>
              <path class="cls-20" d="M84.27,121.65c17.91,21.44,43.88,22.21,67.13,36.29,18.77,11.36,30.26,22.37,22.68,44.53-4.83,14.13-13.42,26.45.82,37.96,19.26,15.57,53.27,7.61,70.8,26.67,10.23,11.12,9.43,29.84,15.03,43.28,7.2,17.27,18.5,30.99,35.84,38.59,23.02,10.09,32.54,12.99,37.85,40.6,5.03,26.12,8.75,45.02,26,66.37"/>
              <path class="cls-29" d="M79.76,128.34c25.52,27.65,108.4,23.14,88.64,77.65-5.7,15.71-10.89,26.89,5.71,37.08,19.25,11.81,52.87,7.02,67.6,26.68,8.68,11.58,7.27,29.32,12.96,42.42,7.83,18.03,21.13,29.87,38.83,37.91,21.9,9.95,30.69,15.24,35.62,40.79,5.16,26.75,10.77,45.87,28.41,67.5"/>
              <path class="cls-26" d="M75.41,135.33c27.16,25.82,105.01,15.26,87.98,71.82-6.43,21.37-8.99,31.25,15.86,40.09,18.46,6.57,45.46,7.63,56.85,25.67,7.8,12.35,6.4,28.96,12.71,42.28,8.96,18.92,26.5,28.3,44.37,37.31,17.73,8.93,25.45,18.24,29.92,38.6,6.06,27.59,13.39,47.52,31.52,69.93"/>
              <path class="cls-28" d="M71.19,142.44c18.62,15.22,45.53,10.75,67.28,22.07,23.26,12.12,25.22,23.86,18.38,46.36-15.53,51.12,56.39,30.11,73.65,65.31,6.37,12.98,4.99,27.9,12.21,40.92,10.41,18.75,30.52,27.24,48.13,37.41,16.36,9.45,21.51,20.97,26.22,39.52,6.88,27.18,16.85,47.77,34.53,69.9"/>
              <path class="cls-27" d="M67.03,149.47c20.66,12.14,46.16,6.27,67.91,18.23,24.02,13.2,18.71,24.9,15.04,47-8.05,48.35,61.4,26.28,74.58,64.83,4.63,13.55,3.9,27.16,12.25,39.64,12.34,18.43,34.49,26.05,51.97,37.9,15.14,10.27,16.96,23.41,21.91,40.68,7.53,26.31,20.82,47.94,37.67,69.39"/>
              <path class="cls-25" d="M62.87,156.14c22.13,8.25,46.51,1.69,67.74,14.64,23.06,14.07,13.22,26.53,12.29,47.77-1.95,44.95,67.27,22.65,75.56,64.43,2.83,14.24,3.21,26.5,13.11,38.45,14.86,17.93,38.01,24.37,55.29,38.73,13.59,11.3,12.17,25.61,17.27,41.86,7.89,25.13,24.9,48.01,40.73,68.59"/>
              <path class="cls-36" d="M58.6,162.18c22.28,4.03,46.8-2.25,66.68,11.69,21.35,14.98,8.19,28.29,10.41,48.56,4.63,42.29,72.98,18.18,76.47,64.24,1.17,15.51,3.47,25.77,15.23,37.48,16.49,16.44,41.81,23.3,57.51,39.66,11.48,11.96,7.67,27.49,12.89,42.69,8.28,24.14,28.11,47.75,43.27,67.84"/>
              <path class="cls-33" d="M54.18,166.6c21.77,1.7,46.04-4.62,64.43,10.53,19.38,15.97,4.73,29.99,9.89,49.15,6.22,23.07,38.13,23.88,56.5,30.87,18.14,6.91,20.92,15.15,20.67,33.49-.22,16.69,5.11,25.51,18.22,36.82,16.46,14.19,45.96,23.49,58.72,40.55,9.24,12.35,3.48,28.81,9.1,43.12,9.22,23.46,30.3,47.03,45.23,67.14"/>
              <path class="cls-35" d="M49.39,170.07c21.33.05,44.94-5.95,61.78,10.48,16.42,16.01,3.22,31.98,10.79,49.45,9.36,21.62,45.13,20.78,63.36,29.34,17.48,8.21,14.73,18.88,13.67,35.59-1.1,17.39,8.39,25.84,21.91,36.5,15.7,12.36,48.94,24.07,58.73,41.3,7.31,12.86-.22,29.29,6.26,43.13,3.62,7.72,10.75,14.44,15.69,21.3,10.66,14.84,20.09,30.37,30.93,45.11"/>
              <path class="cls-34" d="M44.17,172.73c22.08-.61,48.5-7.48,62.28,15.57,8.75,14.63,1.37,34.64,12.03,47.35,14.33,17.08,42.75,15.05,62.02,24.03,20.95,9.76,12.19,22.48,11.46,39.96-.71,17.14,12.44,25.65,25.16,35.33,12.27,9.33,25.41,17.25,38.39,25.52,5.62,3.58,17.04,8.71,20.24,15.11,7.21,14.43-3.33,31,5.39,46.26,12.66,22.18,31.39,43.73,46.63,64.37"/>
              <path class="cls-37" d="M38.47,174.67c22.55-1.85,45.59-5.23,58.96,17.78,8.68,14.93,3.1,34.77,16.51,46.38,17.98,15.57,46.8,10,65.74,23.25,18.37,12.86,5.41,25.41,5.29,42.5-.12,17.28,17.45,26.45,30.07,35.66,15.09,11.02,48.87,22.57,55.94,40.59,6.23,15.89-5.19,29.39,5.18,45.75,13.76,21.72,31.12,42.81,46.63,63.44"/>
            </g>
          </g>
        </g>
      </g>
      <path class="cls-12" d="M439.32,264.25c0,96.65-78.35,175-175,175s-175-78.35-175-175c0-56.68,26.95-107.07,68.73-139.05,29.46-22.55,66.3-35.95,106.27-35.95,96.65,0,175,78.35,175,175Z"/>
    </g>
  </g>
</svg>